{"title":"G.I. Joe Retaliation-(2013)-Triple Audio-Hindi+English+latin-Blu","uid":8768615,"size":1174081880,"categoryP":"video","categoryS":"hd___movies","magnet":"?xt=urn:btih:e0d6fcf26180b43f8ce297b113a7aaae9af00044&amp;dn=G.I.+Joe+Retaliation-%282013%29-Triple+Audio-Hindi%2BEnglish%2Blatin-Blu&amp;tr=udp%3A%2F%2Ftracker.openbittorrent.com%3A80&amp;tr=udp%3A%2F%2Fopen.demonii.com%3A1337&amp;tr=udp%3A%2F%2Ftracker.coppersurfer.tk%3A6969&amp;tr=udp%3A%2F%2Fexodus.desync.com%3A6969","seeders":0,"leechers":1,"uploader":"NokiaAnir","files":11,"time":1375395756,"description":"General\n\nFormat                           : Matroska\n\nFile size                        : 1.09 GiB\n\nDuration                         : 1h 50mn\n\nOverall bit rate                 : 1 412 Kbps\n\nEncoded date                     : UTC 2013-08-01 19:03:13\n\nWriting application              : mkvmerge v4.4.0 ('Die Wiederkehr') built on Oct 31 2010 21:52:48\n\nWriting library                  : libebml v1.0.0 + libmatroska v1.0.0\n\n\n\nVideo\n\nID                               : 1\n\nFormat                           : AVC\n\nFormat/Info                      : Advanced Video Codec\n\nFormat profile                   : &lt;a class=&quot;__cf_email__&quot; href=&quot;/cdn-cgi/l/email-protection&quot; data-cfemail=&quot;9cd4f5fbf4dcd0afb2ac&quot;&gt;[email&amp;#160;protected]&lt;/a&gt;&lt;script cf-hash='f9e31' type=&quot;text/javascript&quot;&gt;\n/* &lt;![CDATA[ */!function(){try{var t=&quot;currentScript&quot;in document?document.currentScript:function(){for(var t=document.getElementsByTagName(&quot;script&quot;),e=t.length;e--;)if(t[e].getAttribute(&quot;cf-hash&quot;))return t[e]}();if(t&amp;&amp;t.previousSibling){var e,r,n,i,c=t.previousSibling,a=c.getAttribute(&quot;data-cfemail&quot;);if(a){for(e=&quot;&quot;,r=parseInt(a.substr(0,2),16),n=2;a.length-n;n+=2)i=parseInt(a.substr(n,2),16)^r,e+=String.fromCharCode(i);e=document.createTextNode(e),c.parentNode.replaceChild(e,c)}}}catch(u){}}();/* ]]&gt; */&lt;/script&gt;\n\nFormat settings, CABAC           : No\n\nFormat settings, ReFrames        : 1 frame\n\nMuxing mode                      : Header stripping\n\nCodec ID                         : V_MPEG4/ISO/AVC\n\nDuration                         : 1h 50mn\n\nNominal bit rate                 : 1 024 Kbps\n\nWidth                            : 1 280 pixels\n\nHeight                           : 534 pixels\n\nDisplay aspect ratio             : 2.35:1\n\nFrame rate                       : 23.976 fps\n\nColor space                      : YUV\n\nChroma subsampling               : 4:2:0\n\nBit depth                        : 8 bits\n\nScan type                        : Progressive\n\nBits/(Pixel*Frame)               : 0.062\n\nWriting library                  : x264 core 80 r1378+57 6f6b50a\n\n\n\n\nAudio #1\n\nID                               : 2\n\nFormat                           : AAC\n\nFormat/Info                      : Advanced Audio Codec\n\nFormat profile                   : Main\n\nCodec ID                         : A_AAC\n\nDuration                         : 1h 50mn\n\nChannel(s)                       : 2 channels\n\nChannel positions                : Front: L R\n\nSampling rate                    : 44.1 KHz\n\nCompression mode                 : Lossy\n\nTitle                            : hindi\n\nLanguage                         : Hindi\n\n\n\nAudio #2\n\nID                               : 3\n\nFormat                           : MPEG Audio\n\nFormat version                   : Version 1\n\nFormat profile                   : Layer 3\n\nMode                             : Joint stereo\n\nMode extension                   : MS Stereo\n\nMuxing mode                      : Header stripping\n\nCodec ID                         : A_MPEG/L3\n\nCodec ID/Hint                    : MP3\n\nDuration                         : 1h 50mn\n\nBit rate mode                    : Constant\n\nBit rate                         : 128 Kbps\n\nChannel(s)                       : 2 channels\n\nSampling rate                    : 48.0 KHz\n\nCompression mode                 : Lossy\n\nStream size                      : 101 MiB (9%)\n\nTitle                            : english\n\nWriting library                  : LAME3.97\n\nLanguage                         : English\n\n\n\nAudio #3\n\nID                               : 4\n\nFormat                           : MPEG Audio\n\nFormat version                   : Version 1\n\nFormat profile                   : Layer 3\n\nMode                             : Joint stereo\n\nMuxing mode                      : Header stripping\n\nCodec ID                         : A_MPEG/L3\n\nCodec ID/Hint                    : MP3\n\nDuration                         : 1h 50mn\n\nBit rate mode                    : Constant\n\nBit rate                         : 128 Kbps\n\nChannel(s)                       : 2 channels\n\nSampling rate                    : 44.1 KHz\n\nCompression mode                 : Lossy\n\nStream size                      : 101 MiB (9%)\n\nTitle                            : latin\n\nWriting library                  : LAME3.98.2\n\nLanguage                         : Latin\n\n","torrent":{"xt":"urn:btih:e0d6fcf26180b43f8ce297b113a7aaae9af00044","amp;dn":"G.I.+Joe+Retaliation-%282013%29-Triple+Audio-Hindi%2BEnglish%2Blatin-Blu","amp;tr":["udp%3A%2F%2Ftracker.openbittorrent.com%3A80","udp%3A%2F%2Fopen.demonii.com%3A1337","udp%3A%2F%2Ftracker.coppersurfer.tk%3A6969","udp%3A%2F%2Fexodus.desync.com%3A6969"],"infoHash":"e0d6fcf26180b43f8ce297b113a7aaae9af00044","infoHashBuffer":{"type":"Buffer","data":[224,214,252,242,97,128,180,63,140,226,151,177,19,167,170,174,154,240,0,68]},"announce":[],"urlList":[]}}